#!OML:ASF H:\Not Pregnant\Project 1\Capture day 1\Session 1\non-pregnant.ASF
:FULLY-SPECIFIED
:DEGREES
502
root 5.23405 18.761 15.1413 12.444 -12.9195 -10.29
lowerback -1.84121 4.27753 9.54813
upperback -5.86354 5.82139 0.134739
thorax -4.1956 2.50075 -5.23406
lowerneck 13.9277 -10.9094 -30.9965
upperneck 4.61481 -21.7154 35.6109
head 7.09333 -12.2132 16.8989
rclavicle -1.34925e-014 -2.54444e-014
rhumerus -37.9756 -10.5344 -82.1113
rradius 31.3507
rwrist 19.8556
rhand -13.9018 -2.35943
rfingers 7.12502
rthumb 12.2238 -31.9822
lclavicle -1.34925e-014 -2.54444e-014
lhumerus -48.476 5.15978 81.2104
lradius 28.0983
lwrist 28.7217
lhand -12.8603 -8.32487
lfingers 7.12502
lthumb 13.2278 21.2354
rfemur -16.7484 8.57685 31.708
rtibia 53.1262
rfoot -37.8321 -1.63187
rtoes -20.8146
lfemur -33.9057 -5.11051 -3.80575
ltibia 32.5524
lfoot -4.20009 -10.6449
ltoes -49.2483
503
root 5.25337 18.721 15.2414 12.5616 -12.9068 -10.1884
lowerback -2.26564 4.34491 9.52458
upperback -5.97228 5.86573 0.0895697
thorax -4.06183 2.52655 -5.23644
lowerneck 13.9728 -10.9107 -31.0052
upperneck 4.52163 -21.7212 35.6659
head 7.07008 -12.2226 16.9264
rclavicle -1.35422e-014 -2.14687e-014
rhumerus -38.4495 -10.9422 -81.7839
rradius 31.049
rwrist 19.9052
rhand -13.8796 -2.4481
rfingers 7.12502
rthumb 12.2452 -32.0696
lclavicle -1.35422e-014 -2.14687e-014
lhumerus -48.4643 5.21632 81.105
lradius 28.1108
lwrist 28.5953
lhand -12.8779 -8.42134
lfingers 7.12502
lthumb 13.2109 21.1401
rfemur -16.7133 8.69614 31.4558
rtibia 53.641
rfoot -38.1207 -1.68845
rtoes -21.2766
lfemur -33.5341 -5.51861 -3.93427
ltibia 32.4119
lfoot -5.94833 -9.81264
ltoes -50.1984
504
root 5.27382 18.6824 15.3413 12.6591 -12.8588 -10.0686
lowerback -2.65365 4.40216 9.48947
upperback -6.07766 5.90087 0.0434339
thorax -3.94767 2.54724 -5.23634
lowerneck 14.0254 -10.9132 -31.0134
upperneck 4.39867 -21.7258 35.7393
head 7.03937 -12.2328 16.9625
rclavicle -2.04251e-014 -1.43125e-014
rhumerus -38.9225 -11.4012 -81.4044
rradius 30.6678
rwrist 20.0892
rhand -13.8097 -2.5104
rfingers 7.12502
rthumb 12.3126 -32.1279
lclavicle -2.04251e-014 -1.43125e-014
lhumerus -48.4296 5.26719 81.0156
lradius 28.1282
lwrist 28.4746
lhand -12.9238 -8.56613
lfingers 7.12502
lthumb 13.1667 20.9981
rfemur -16.6756 8.78309 31.183
rtibia 54.1766
rfoot -38.3741 -1.70058
rtoes -21.7587
lfemur -33.1753 -5.9028 -4.10662
ltibia 32.243
lfoot -7.22169 -8.97899
ltoes -50.4342
505
root 5.29538 18.6443 15.441 12.7323 -12.7736 -9.93344
lowerback -2.99743 4.4476 9.44267
upperback -6.18103 5.92576 -0.00109687
thorax -3.85933 2.56204 -5.23194
lowerneck 14.096 -10.9158 -31.0133
upperneck 4.244 -21.7264 35.82
head 6.99438 -12.2427 17.0014
rclavicle 3.24267e-014 2.14687e-014
rhumerus -39.4054 -11.9001 -80.9717
rradius 30.2167
rwrist 20.4122
rhand -13.7107 -2.53153
rfingers 7.12502
rthumb 12.4081 -32.1433
lclavicle 3.24267e-014 2.14687e-014
lhumerus -48.3739 5.30799 80.9462
lradius 28.1412
lwrist 28.3678
lhand -12.9977 -8.7463
lfingers 7.12502
lthumb 13.0954 20.8226
rfemur -16.634 8.83459 30.8941
rtibia 54.7398
rfoot -38.5906 -1.66865
rtoes -22.2706
lfemur -32.8223 -6.25882 -4.31958
ltibia 32.0649
lfoot -8.41904 -8.20549
ltoes -50.6104
506
root 5.31792 18.6064 15.5397 12.7694 -12.6543 -9.76999
lowerback -3.29 4.4795 9.36953
upperback -6.27408 5.93846 -0.0474849
thorax -3.79288 2.57101 -5.21923
lowerneck 14.1804 -10.9244 -30.9935
upperneck 4.04812 -21.7252 35.9014
head 6.93117 -12.2523 17.0357
rclavicle 3.39425e-014 -2.94201e-014
rhumerus -39.8862 -12.4369 -80.4912
rradius 29.7098
rwrist 20.8387
rhand -13.5483 -2.56048
rfingers 7.12502
rthumb 12.5647 -32.1627
lclavicle 3.39425e-014 -2.94201e-014
lhumerus -48.2925 5.3362 80.9003
lradius 28.1554
lwrist 28.2871
lhand -13.1067 -8.94645
lfingers 7.12502
lthumb 12.9903 20.6291
rfemur -16.5858 8.84989 30.5778
rtibia 55.3381
rfoot -38.767 -1.59163
rtoes -22.8328
lfemur -32.4649 -6.58189 -4.58978
ltibia 31.8988
lfoot -9.60224 -7.46684
ltoes -50.8459
507
root 5.34143 18.5684 15.6375 12.77 -12.4975 -9.58339
lowerback -3.53067 4.50044 9.27903
upperback -6.3632 5.9429 -0.0956167
thorax -3.75409 2.57528 -5.20338
lowerneck 14.2877 -10.9351 -30.9631
upperneck 3.82815 -21.7234 35.977
head 6.85386 -12.263 17.0656
rclavicle 3.24019e-014 2.38542e-015
rhumerus -40.3811 -13.0304 -79.9443
rradius 29.1361
rwrist 21.4051
rhand -13.3587 -2.56425
rfingers 7.12502
rthumb 12.7474 -32.1551
lclavicle 3.24019e-014 2.38542e-015
lhumerus -48.2015 5.33639 80.8854
lradius 28.175
lwrist 28.2481
lhand -13.2512 -9.14261
lfingers 7.12502
lthumb 12.851 20.4418
rfemur -16.5334 8.82456 30.2389
rtibia 55.9743
rfoot -38.8983 -1.44527
rtoes -23.3991
lfemur -32.1008 -6.85984 -4.91766
ltibia 31.7628
lfoot -10.7591 -6.75453
ltoes -51.1103
508
root 5.3656 18.5309 15.7344 12.7275 -12.306 -9.36491
lowerback -3.72501 4.50556 9.15755
upperback -6.43526 5.93134 -0.145377
thorax -3.728 2.57277 -5.17597
lowerneck 14.4044 -10.951 -30.922
upperneck 3.57655 -21.7209 36.0538
head 6.7641 -12.2741 17.0931
rclavicle 7.442e-014 1.66979e-014
rhumerus -40.8633 -13.677 -79.3364
rradius 28.4941
rwrist 22.1096
rhand -13.135 -2.55762
rfingers 7.12502
rthumb 12.9631 -32.1349
lclavicle 7.442e-014 1.66979e-014
lhumerus -48.092 5.33106 80.8911
lradius 28.2128
lwrist 28.2462
lhand -13.4202 -9.32623
lfingers 7.12502
lthumb 12.6881 20.2683
rfemur -16.4657 8.75319 29.8703
rtibia 56.6464
rfoot -38.9862 -1.26201
rtoes -24.0498
lfemur -31.7263 -7.08159 -5.3206
ltibia 31.6722
lfoot -11.8931 -6.05341
ltoes -51.4314
509
root 5.39019 18.4946 15.8302 12.6432 -12.0814 -9.11604
lowerback -3.86804 4.49746 9.00627
upperback -6.49192 5.90781 -0.19967
thorax -3.71803 2.56518 -5.14108
lowerneck 14.523 -10.9748 -30.8691
upperneck 3.30182 -21.7228 36.1358
head 6.66848 -12.2875 17.1188
rclavicle -1.97791e-014 -8.74653e-015
rhumerus -41.3346 -14.4005 -78.6576
rradius 27.7798
rwrist 22.9734
rhand -12.8908 -2.52709
rfingers 7.12502
rthumb 13.1985 -32.0893
lclavicle -1.97791e-014 -8.74653e-015
lhumerus -47.9609 5.30367 80.9236
lradius 28.2706
lwrist 28.295
lhand -13.6099 -9.4901
lfingers 7.12502
lthumb 12.5052 20.1157
rfemur -16.384 8.64025 29.4732
rtibia 57.3477
rfoot -39.0159 -1.01125
rtoes -24.7172
lfemur -31.3539 -7.23565 -5.80158
ltibia 31.6382
lfoot -12.9524 -5.41804
ltoes -51.6733
510
root 5.41486 18.4607 15.925 12.5254 -11.8249 -8.84984
lowerback -3.96297 4.47304 8.83078
upperback -6.53417 5.86788 -0.25071
thorax -3.72439 2.5502 -5.09356
lowerneck 14.6311 -11.0031 -30.8125
upperneck 3.01666 -21.7255 36.2242
head 6.57307 -12.3006 17.1455
rclavicle 1.74434e-014 -2.38542e-015
rhumerus -41.7928 -15.1708 -77.92
rradius 27.0139
rwrist 23.9646
rhand -12.6294 -2.47941
rfingers 7.12502
rthumb 13.4504 -32.0251
lclavicle 1.74434e-014 -2.38542e-015
lhumerus -47.8015 5.26663 80.9797
lradius 28.344
lwrist 28.3898
lhand -13.8074 -9.62747
lfingers 7.12502
lthumb 12.3148 19.9899
rfemur -16.2879 8.48571 29.0625
rtibia 58.0697
rfoot -38.9734 -0.733439
rtoes -25.4905
lfemur -30.9985 -7.31002 -6.34817
ltibia 31.6683
lfoot -13.9823 -4.8235
ltoes -51.9726
511
root 5.43969 18.4304 16.0188 12.3774 -11.5393 -8.55522
lowerback -4.01501 4.43144 8.62214
upperback -6.56482 5.80978 -0.301652
thorax -3.7476 2.52716 -5.03147
lowerneck 14.7345 -11.0302 -30.76
upperneck 2.72879 -21.7261 36.3233
head 6.47987 -12.3133 17.179
rclavicle -9.93923e-016 -2.3059e-014
rhumerus -42.2366 -15.9922 -77.1211
rradius 26.2007
rwrist 25.0787
rhand -12.3288 -2.43877
rfingers 7.12502
rthumb 13.7401 -31.9651
lclavicle -9.93923e-016 -2.3059e-014
lhumerus -47.6187 5.2272 81.0555
lradius 28.4347
lwrist 28.5199
lhand -14.0102 -9.73756
lfingers 7.12502
lthumb 12.1193 19.8914
rfemur -16.1825 8.29328 28.6203
rtibia 58.8084
rfoot -38.8486 -0.389826
rtoes -26.3161
lfemur -30.6707 -7.3193 -6.96895
ltibia 31.7661
lfoot -14.889 -4.34325
ltoes -52.1468
512
root 5.46469 18.4045 16.1119 12.2097 -11.2225 -8.23593
lowerback -4.0249 4.37332 8.3839
upperback -6.59343 5.73451 -0.351125
thorax -3.79697 2.49576 -4.95557
lowerneck 14.8388 -11.0535 -30.7223
upperneck 2.44854 -21.7267 36.4311
head 6.39277 -12.3271 17.2211
rclavicle 6.54002e-014 1.43125e-014
rhumerus -42.6767 -16.8711 -76.2503
rradius 25.3448
rwrist 26.3133
rhand -11.9862 -2.39925
rfingers 7.12502
rthumb 14.0703 -31.9029
lclavicle 6.54002e-014 1.43125e-014
lhumerus -47.4254 5.18481 81.1523
lradius 28.5473
lwrist 28.6771
lhand -14.2186 -9.80718
lfingers 7.12502
lthumb 11.9183 19.8336
rfemur -16.0848 8.0661 28.1466
rtibia 59.5673
rfoot -38.619 0.046427
rtoes -27.1562
lfemur -30.3851 -7.29417 -7.64347
ltibia 31.9279
lfoot -15.6798 -3.99062
ltoes -52.2321
